<svg id="SvgjsSvg1001" width="288" height="288" xmlns="http://www.w3.org/2000/svg" version="1.1" xmlns:xlink="http://www.w3.org/1999/xlink" xmlns:svgjs="http://svgjs.com/svgjs"><defs id="SvgjsDefs1002"></defs><g id="SvgjsG1008"><svg xmlns="http://www.w3.org/2000/svg" viewBox="0 0 96 96" width="288" height="288"><path fill="url(#a)" fill-rule="evenodd" d="M50.5 19C50.5 17.6193 49.3807 16.5 48 16.5C46.6193 16.5 45.5 17.6193 45.5 19L45.5 47C45.5 48.3807 46.6193 49.5 48 49.5C49.3807 49.5 50.5 48.3807 50.5 47V19ZM32.2322 46.2322C31.2559 47.2085 31.2559 48.7915 32.2322 49.7678L43.0503 60.5858C45.7839 63.3195 50.2161 63.3195 52.9497 60.5858L63.7678 49.7678C64.7441 48.7915 64.7441 47.2085 63.7678 46.2322C62.7915 45.2559 61.2085 45.2559 60.2322 46.2322L49.4142 57.0503C48.6332 57.8313 47.3668 57.8313 46.5858 57.0503L35.7678 46.2322C34.7915 45.2559 33.2085 45.2559 32.2322 46.2322ZM19.5 71C19.5 72.933 21.067 74.5 23 74.5L73 74.5C74.933 74.5 76.5 72.933 76.5 71V58C76.5 56.6193 77.6193 55.5 79 55.5C80.3807 55.5 81.5 56.6193 81.5 58V71C81.5 75.6944 77.6944 79.5 73 79.5L23 79.5C18.3056 79.5 14.5 75.6944 14.5 71V58C14.5 56.6193 15.6193 55.5 17 55.5C18.3807 55.5 19.5 56.6193 19.5 58L19.5 71Z" clip-rule="evenodd" class="svgShape colorgradient-0 selectable"></path><defs><linearGradient id="a" x1="48" x2="48" y1="16.5" y2="79.5" gradientUnits="userSpaceOnUse"><stop stop-color="#043420" class="svgShape stopColor041034-3"></stop><stop offset="1" stop-color="#51c494" class="svgShape stopColor516ec4-4"></stop></linearGradient></defs></svg></g></svg>