<svg xmlns="http://www.w3.org/2000/svg" viewBox="0 0 512 512" id="savings">
  <path fill-rule="evenodd" d="M350.225,176.141c0-5.222,4.234-9.456,9.456-9.456s9.456,4.234,9.456,9.456c0,3.738,1.515,7.122,3.963,9.571,2.445,2.445,5.823,3.959,9.556,3.963h.013s.002,0,.002,0h.013c3.707-.003,7.043-1.503,9.467-3.927,2.496-2.496,4.048-5.922,4.091-9.68.099-8.664-7.659-10.966-15.568-13.313-14.803-4.392-29.892-8.87-30.412-32.408-.028-1.301-.042.172-.042-.677,0-8.759,3.622-16.671,9.434-22.44,3.73-3.703,8.381-6.514,13.56-8.079v-8.647c0-5.222,4.234-9.456,9.456-9.456s9.456,4.234,9.456,9.456v8.613c5.157,1.569,9.771,4.388,13.487,8.104,5.872,5.872,9.504,13.984,9.504,22.942,0,5.222-4.234,9.456-9.456,9.456s-9.456-4.234-9.456-9.456c0-3.738-1.515-7.123-3.963-9.571-2.446-2.446-5.825-3.96-9.558-3.963h-.015s-.02,0-.02,0c-.282,0-.376-.004-.376-.009-.079-.003-.158-.007-.236-.013-3.515.155-6.728,1.652-9.087,3.994-2.352,2.335-3.819,5.533-3.819,9.069,0,1.178-.053-.663-.032.308.215,9.729,8.634,12.228,16.893,14.678,14.816,4.396,29.349,8.709,29.087,31.56-.103,8.974-3.728,17.074-9.558,22.904-3.696,3.696-8.272,6.501-13.396,8.065v8.616c0,5.222-4.234,9.456-9.456,9.456s-9.456-4.234-9.456-9.456v-8.614c-5.156-1.569-9.768-4.387-13.484-8.103-5.872-5.872-9.504-13.984-9.504-22.941h0ZM290.126,172.008c.057.232.106.468.146.706,1.483,7.067,3.755,13.837,6.718,20.214,5.342,11.496,12.941,21.742,22.23,30.174h37.407c10.336,0,19.726,4.222,26.528,11.024,3.681,3.681,6.605,8.12,8.515,13.057,22.771-2.152,43.198-12.401,58.371-27.841,16.728-17.023,27.046-40.389,27.046-66.189,0-26.074-10.568-49.679-27.653-66.765-17.085-17.086-40.69-27.653-66.765-27.653s-49.679,10.568-66.765,27.653c-17.085,17.086-27.653,40.691-27.653,66.765,0,6.462.645,12.768,1.875,18.856h0ZM392.442,322.129h-136.354c-5.103,0-9.75,2.095-13.124,5.469-3.374,3.374-5.469,8.021-5.469,13.124v27.793c0,5.103,2.095,9.75,5.469,13.124,3.374,3.374,8.021,5.469,13.124,5.469h136.354v-64.979h0ZM394.179,303.237v-37.372c27.05-2.73,51.283-14.96,69.307-33.301,20.109-20.464,32.513-48.501,32.513-79.413,0-31.294-12.685-59.627-33.194-80.135-20.509-20.509-48.842-33.194-80.136-33.194s-59.627,12.685-80.135,33.194c-20.509,20.509-33.194,48.842-33.194,80.136,0,3.94.203,7.835.597,11.674H57.561c-11.438,0-21.831,4.673-29.359,12.201-7.528,7.528-12.201,17.921-12.201,29.359v224.233c0,11.438,4.673,21.831,12.201,29.359,7.528,7.528,17.921,12.201,29.359,12.201h295.058c11.439,0,21.831-4.673,29.359-12.201,7.528-7.528,12.201-17.92,12.201-29.359v-24.619c4.63-.216,8.813-2.191,11.888-5.267,3.262-3.262,5.287-7.769,5.287-12.736v-66.758c0-4.966-2.025-9.474-5.287-12.736-3.075-3.076-7.258-5.051-11.888-5.267h0ZM256.088,303.217h119.179v-42.563c0-5.116-2.1-9.774-5.483-13.157-3.383-3.383-8.041-5.483-13.157-5.483H91.538c-5.222,0-9.456-4.234-9.456-9.456s4.234-9.456,9.456-9.456h201.986c-5.367-6.832-9.968-14.298-13.673-22.269-2.546-5.478-4.668-11.191-6.322-17.094H57.561c-6.219,0-11.879,2.551-15.988,6.66-4.109,4.109-6.66,9.77-6.66,15.988v224.233c0,6.219,2.551,11.879,6.66,15.988,4.109,4.109,9.77,6.66,15.988,6.66h295.058c6.219,0,11.879-2.551,15.988-6.66,4.109-4.109,6.66-9.769,6.66-15.988v-24.598h-119.179c-10.324,0-19.702-4.217-26.495-11.01-6.793-6.793-11.01-16.172-11.01-26.495v-27.793c0-10.323,4.217-19.702,11.01-26.495,6.793-6.793,16.172-11.01,26.495-11.01h0ZM267.258,363.377c-5.222,0-9.456-4.234-9.456-9.456s4.234-9.456,9.456-9.456h.145c5.222,0,9.456,4.234,9.456,9.456s-4.234,9.456-9.456,9.456h-.145Z"></path>
</svg>
